<?xml version="1.0" standalone="no"?><!DOCTYPE svg PUBLIC "-//W3C//DTD SVG 1.1//EN" "http://www.w3.org/Graphics/SVG/1.1/DTD/svg11.dtd"><svg t="1652285339938" class="icon" viewBox="0 0 1024 1024" version="1.1" xmlns="http://www.w3.org/2000/svg" p-id="10703" xmlns:xlink="http://www.w3.org/1999/xlink" width="50" height="50"><defs><style type="text/css">@font-face { font-family: feedback-iconfont; src: url("//at.alicdn.com/t/font_1031158_u69w8yhxdu.woff2?t=1630033759944") format("woff2"), url("//at.alicdn.com/t/font_1031158_u69w8yhxdu.woff?t=1630033759944") format("woff"), url("//at.alicdn.com/t/font_1031158_u69w8yhxdu.ttf?t=1630033759944") format("truetype"); }
</style></defs><path d="M911.701333 347.050667c-11.52-45.994667 11.52-119.210667 85.674667-145.152l-79.274667-4.266667s-29.952-104.96-167.509333-114.261333C613.205333 73.984 523.093333 79.872 523.093333 79.872c0.085333 0 101.973333 64.853333 61.098667 180.48-29.866667 61.269333-76.8 111.530667-126.890667 168.789333a134038.442667 134038.442667 0 0 0-430.592 488.874667c286.805333 75.093333 479.146667-7.338667 592.896-106.325333l54.016-0.341334c158.378667 0 292.352-137.216 286.805334-289.792-3.669333-104.874667-37.205333-128.597333-48.725334-174.506666z m-238.08 389.632l-54.613333 0.341333-27.562667 0.256-20.736 18.090667a467.968 467.968 0 0 1-200.021333 102.229333 592.896 592.896 0 0 1-201.386667 11.093333l64.597334-73.557333c107.264-122.026667 202.752-230.4 276.309333-313.173333l1.706667-1.706667 1.450666-1.706667a4122.453333 4122.453333 0 0 0 57.429334-66.218666c35.84-42.752 60.928-79.104 80.469333-119.210667l1.877333-3.84 1.450667-3.925333c15.957333-45.226667 17.92-89.770667 7.168-131.669334 26.282667 0.853333 54.272 2.218667 83.626667 4.266667 38.912 2.645333 64.853333 15.018667 83.029333 34.048a92.586667 92.586667 0 0 1 18.261333 27.648l5.888 20.650667a193.450667 193.450667 0 0 0-13.312 125.013333c3.498667 13.824 8.021333 26.197333 14.336 40.106667 2.474667 5.546667 11.093333 23.552 12.8 27.306666 12.032 26.453333 18.005333 50.090667 19.541334 91.733334 3.84 110.421333-96.426667 212.224-212.309334 212.224z" fill="#000000" p-id="10704" data-spm-anchor-id="a313x.7781069.0.i15" class="selected"></path></svg>